<?xml version="1.0" encoding="utf-8"?>
<!-- Generator: Adobe Illustrator 22.1.0, SVG Export Plug-In . SVG Version: 6.00 Build 0)  -->
<svg version="1.1" id="Layer_1" xmlns="http://www.w3.org/2000/svg" xmlns:xlink="http://www.w3.org/1999/xlink" x="0px" y="0px"
	 viewBox="0 0 1366 768" style="enable-background:new 0 0 1366 768;" xml:space="preserve">
<style type="text/css">
	.st0{fill:#EFE697;}
</style>
<g>
	<g id="XMLID_1_">
		<g>
			<path class="st0" d="M1258.6,410.4c-2.7,0.1-4.6,0.3-6.5,0.3c-39.3,0.4-78.6,0.9-118,1.1c-43.5,0.3-87,1.6-130.2,6.3
				c-34.8,3.8-69.2,9.7-101.6,23.8c-7.6,3.3-15,7.1-22.1,11.4c-7.1,4.3-13.5,9.6-21,14.9c-1.9-3.1-4.1-6.3-5.8-9.8
				c-6.7-13.1-11.9-16.6-26.5-15.1c-9.6,1-19,3.3-28.4,5c-2.2,0.4-4.6,0.5-8-0.4c2.4-3.6,4.2-7.6,7.1-10.8
				c35.2-38.1,79-60.5,129.3-71.3c32.2-6.9,64.7-10.8,97.5-12c44.1-1.7,88.3-2.4,132.4-4.1c27.6-1.1,55.2-3.1,83.9-4.8
				c-0.2,2.9-0.4,6.3-0.6,9.6c-0.2,3.3-0.8,6.7,3,8.8c0.6,0.3,1,1.7,1,2.6c0,9.9,3.7,18.8,7.7,27.6
				C1254,399,1256.1,404.4,1258.6,410.4z"/>
			<path class="st0" d="M306,533.8c1.7,2,3,5.3,2.8,7.8c-1.3,12.9-2,26.1-5.4,38.5c-1.9,7-1,13.6-1.5,20.3c-0.5,0.3-1,0.6-1.5,0.8
				c-76.9-93.6-153.8-187.1-230.7-280.7c0.7-0.3,1.4-0.6,2-1c0.6-2.7,1.4-5.4,1.6-8.1c0.7-10,3.1-19.3,9.6-27.2
				c1.2-1.4,2.7-2.5,4.1-3.7c2.5-2.3,4.4-1.6,6.5,0.9c14.8,17,30.1,33.4,44.5,50.7c40,48.2,79.4,96.8,119.4,145.1
				C273.3,496.5,290,514.9,306,533.8z"/>
			<path class="st0" d="M779.7,427.7c-3.6,4.2-6.8,8.1-10.1,12.1c-4.2,5.1-8.7,10.1-12.7,15.4c-7.7,10.4-10.7,22.3-9.8,35.5
				c-1.6,0.1-2.9,0.3-4.2,0.3c-97.5-1.5-190.5,19.4-279.7,57.7c-41.7,17.9-83.3,36-125,53.9c-8.4,3.6-17,6.7-26.6,10.4
				c0.8-2.8,1.1-4.6,1.8-6.3c2.8-6.5,3.6-13.2,3.6-20.4c0.1-8.6,2.1-17.1,3.2-25.7c0.7-5.1,0.9-10.3,1.9-15.3c0.4-1.9,1.9-4.3,3.6-5
				c53.5-21.4,107.1-42.6,160.8-63.7c42.4-16.6,85.5-31.2,130.1-41.1c44-9.8,88.4-13.8,133.4-11.2
				C759.7,424.8,769.3,426.5,779.7,427.7z"/>
			<path class="st0" d="M1224.3,328.7c0.8,0.5,1.7,1,3.7,2.1c-7.6,0.7-13.9,1.7-20.2,1.9c-38.6,1.5-77.3,2.6-115.9,4.3
				c-38.6,1.7-77.3,3-115.7,6.3c-37.4,3.3-73.9,11.4-108.6,26.4c-25.5,11-48.5,25.8-67.9,45.7c-2.7,2.8-4.7,2.7-7.6,0.6
				c-26.9-19.2-54.1-38.1-80.8-57.6c-59-43-117.7-86.2-176.6-129.3c-10.6-7.8-21.4-15.2-32.6-23.2c14.2-16.5,30.8-28.5,49.8-37.1
				c26.4-12,54.4-17.3,83-19.9c50.9-4.7,101.9-1.2,152.9-2.4c25.8-0.6,51.4-3.5,77.2-5.3c1.5-0.1,3.4,0.2,4.7,0.9
				C988,204.3,1106.2,266.5,1224.3,328.7z"/>
			<path class="st0" d="M765.7,410.9c1.2,0.9,2.4,1.9,3,3.9c-5-0.3-10.1-0.6-15.1-1c-44.5-3.1-88.5,0.5-132.1,9.6
				c-58.5,12.2-114.2,33-169.4,55.3c-42.8,17.3-85.9,34-128.8,51.1c-4.6,1.8-7.4,1.2-10.6-2.7c-44.8-54.1-89.7-108.3-134.9-162.1
				c-25.2-30-51-59.4-76.6-89c-0.8-0.9-1.5-1.7-3.3-3.7c34.5-16.7,68.1-33.5,102.2-49.3c35.8-16.6,72.7-30.2,111.5-38.3
				c43.1-9.1,86.1-10.5,128.8,2.4c17,5.1,33.4,11.8,47.9,21.9c18.9,13,37,27.1,55.5,40.6c63.3,46.3,126.6,92.6,189.9,138.9
				C744.3,396.1,755.1,403.4,765.7,410.9z"/>
			<path d="M1324,400c0,3.3,0,6.7,0,10c-1.9,7.2-3.8,14.5-6,22.8c-8.3,0.6-18.3,1.4-28.3,2.2c-24.2,1.9-48.5,3.7-72.7,5.7
				c-21.1,1.7-42.1,3.4-63.2,5.3c-27.4,2.4-54.7,5.1-82,7.6c-26,2.4-52,4.8-78,7.4c-31.9,3.2-64.1,4.1-95.7,10.9
				c-15.2,3.3-29.3,9.7-43.1,16.6c-15,7.5-30.2,14.7-46.7,18.4c-16,3.6-32.3,5.5-48.6,2.8c-36.2-6.2-70.5,1-104.9,12.1
				C599.4,539.7,543.6,555.9,488,573c-62.3,19.1-124.2,39.3-184.9,63c-3.8,1.5-6.2,0.8-9.2-1.7c-16.7-14.2-29.1-31.9-42.5-48.9
				c-31.9-40.8-64.3-81.2-96.7-121.6C118,418,80.9,372.5,44,327c0-1,0-2,0-3c3.1-0.9,6.2-2.4,9.4-2.7c4.4-0.5,5.1-2.4,5.8-6.6
				c2.7-14.9,5.7-30,17.3-41.1c4.4-4.2,9.6-7.5,16.3-7.8c2-0.1,4-1.6,5.9-2.5c43.1-22,86-44.3,131.1-62.1
				c36-14.2,72.8-25.5,111.4-30c53.2-6.2,103.8,1.4,150.3,29.6c0.8,0.5,1.7,0.9,2.8,1.4c9.8-11.9,21.2-21.9,34-30.1
				c24.1-15.4,50.9-23.5,78.8-28.1c29.8-4.9,59.9-6.1,90.1-6.1c35.5,0,71,0.6,106.5-0.2c20.7-0.5,41.4-3.3,62.2-4.9
				c2-0.2,4.3,0.1,6.1,1c121.1,64.7,244.9,124.4,364.6,191.9c1.8,1,4,1,6,1.6c2,0.6,4,1.4,5.9,2.2c2.8,1.2,5.6,2.2,8.2,3.7
				c1.2,0.7,2.8,2.4,2.8,3.5c-0.1,2-1.5,4-2.1,6c-1.3,3.9-2.8,7.8-3.5,11.8c-0.6,3.7,1.2,6.3,4.8,8.3
				C1280.4,375,1302.2,387.6,1324,400z M1252.1,410.8c1.9,0,3.8-0.2,6.5-0.3c-2.5-6.1-4.6-11.5-7-16.7c-4-8.8-7.7-17.7-7.7-27.6
				c0-0.9-0.4-2.3-1-2.6c-3.8-2.1-3.1-5.5-3-8.8c0.2-3.4,0.4-6.8,0.6-9.6c-28.7,1.7-56.3,3.8-83.9,4.8c-44.1,1.7-88.3,2.5-132.4,4.1
				c-32.8,1.2-65.3,5.1-97.5,12c-50.3,10.8-94.1,33.2-129.3,71.3c-2.9,3.1-4.8,7.2-7.1,10.8c3.4,0.9,5.7,0.8,8,0.4
				c9.5-1.7,18.9-4,28.4-5c14.6-1.5,19.8,2,26.5,15.1c1.8,3.4,4,6.6,5.8,9.8c7.5-5.4,14-10.6,21-14.9c7.1-4.3,14.5-8.1,22.1-11.4
				c32.4-14.1,66.8-19.9,101.6-23.8c43.2-4.8,86.7-6,130.2-6.3C1173.4,411.6,1212.8,411.1,1252.1,410.8z M1228,330.9
				c-2-1.2-2.8-1.7-3.7-2.1C1106.2,266.5,988,204.3,869.8,142.2c-1.4-0.7-3.2-1-4.7-0.9c-25.7,1.8-51.4,4.7-77.2,5.3
				c-51,1.2-102-2.3-152.9,2.4c-28.6,2.7-56.6,7.9-83,19.9c-19,8.7-35.7,20.6-49.8,37.1c11.2,7.9,22,15.4,32.6,23.2
				c58.9,43.1,117.6,86.3,176.6,129.3c26.7,19.5,53.9,38.4,80.8,57.6c2.9,2.1,4.8,2.2,7.6-0.6c19.5-19.9,42.5-34.6,67.9-45.7
				c34.7-15,71.2-23.1,108.6-26.4c38.5-3.4,77.1-4.6,115.7-6.3c38.6-1.7,77.3-2.8,115.9-4.3C1214.2,332.5,1220.5,331.6,1228,330.9z
				 M769.7,439.7c3.2-3.9,6.5-7.8,10.1-12.1c-10.4-1.2-20-2.9-29.7-3.4c-45-2.5-89.5,1.4-133.4,11.2c-44.6,9.9-87.6,24.5-130.1,41.1
				C433,497.7,379.4,519,325.8,540.3c-1.6,0.7-3.2,3.1-3.6,5c-1,5-1.3,10.2-1.9,15.3c-1.1,8.6-3.1,17.1-3.2,25.7
				c-0.1,7.2-0.8,13.8-3.6,20.4c-0.7,1.7-1,3.5-1.8,6.3c9.7-3.8,18.3-6.9,26.6-10.4c41.7-17.9,83.3-36,125-53.9
				c89.3-38.4,182.2-59.2,279.7-57.7c1.3,0,2.6-0.2,4.2-0.3c-1-13.2,2-25.1,9.8-35.5C760.9,449.8,765.4,444.9,769.7,439.7z
				 M768.7,414.8c-0.7-2-1.8-3-3-3.9c-10.6-7.5-21.3-14.8-31.8-22.5c-63.3-46.3-126.6-92.6-189.9-138.9
				c-18.5-13.5-36.6-27.6-55.5-40.6c-14.6-10.1-31-16.7-47.9-21.9c-42.7-12.9-85.7-11.5-128.8-2.4c-38.8,8.1-75.7,21.7-111.5,38.3
				c-34.1,15.8-67.6,32.6-102.2,49.3c1.7,2,2.5,2.8,3.3,3.7c25.6,29.7,51.4,59.1,76.6,89c45.2,53.8,90,108,134.9,162.1
				c3.2,3.9,6,4.5,10.6,2.7c42.9-17.1,86-33.8,128.8-51.1c55.2-22.3,110.9-43.1,169.4-55.3c43.6-9.1,87.6-12.7,132.1-9.6
				C758.6,414.2,763.7,414.5,768.7,414.8z M308.8,541.7c0.3-2.5-1.1-5.8-2.8-7.8c-16.1-18.9-32.7-37.4-48.5-56.5
				c-39.9-48.2-79.4-96.9-119.4-145.1c-14.3-17.3-29.7-33.8-44.5-50.7c-2.2-2.5-4-3.2-6.5-0.9c-1.4,1.2-2.9,2.3-4.1,3.7
				c-6.5,7.9-8.9,17.2-9.6,27.2c-0.2,2.7-1,5.4-1.6,8.1c-0.7,0.3-1.4,0.6-2,1c76.9,93.6,153.8,187.1,230.7,280.7
				c0.5-0.3,1-0.6,1.5-0.8c0.5-6.8-0.4-13.3,1.5-20.3C306.8,567.7,307.5,554.6,308.8,541.7z"/>
		</g>
		<g>
		</g>
	</g>
</g>
</svg>
